<?xml version="1.0" encoding="UTF-8"?>
<svg id="Calque_2" data-name="Calque 2" xmlns="http://www.w3.org/2000/svg" xmlns:xlink="http://www.w3.org/1999/xlink" viewBox="0 0 1023.05 1023.05">
  <defs>
    <style>
      .cls-1 {
        fill: #fff;
      }

      .cls-2 {
        fill: url(#Dégradé_sans_nom_386);
      }

      .cls-3 {
        fill: #ffce39;
      }
    </style>
    <linearGradient id="Dégradé_sans_nom_386" data-name="Dégradé sans nom 386" x1="25.83" y1="25.83" x2="863.69" y2="863.69" gradientUnits="userSpaceOnUse">
      <stop offset="0" stop-color="#1ca638"/>
      <stop offset="1" stop-color="#d3e08c"/>
    </linearGradient>
  </defs>
  <g id="Goldie_STUDIO" data-name="Goldie STUDIO">
    <rect class="cls-2" width="1023.05" height="1023.05"/>
    <path class="cls-1" d="m506.88,609.74c-11.22,5.08-6.64-22.93,5.29-25.96l251.61-57.95c8.14-1.43,11.98,9.59,4.74,13.59-42.17,23.33-83.46,63.88-100.52,113.61-54.9,160.07-144.28,166.99-39.88-9.6,26.94-45.57-27.98-75.9-121.25-33.69Z"/>
    <circle class="cls-1" cx="634.64" cy="497.12" r="40.91"/>
    <path class="cls-3" d="m541.36,615.35c-68.55-14.76,133.33-233.76,88.46-303.46-63.86-99.21-123.04,79.21-123.04,79.21,0,0-180.74-31.3-116.5,74.99"/>
    <g>
      <path class="cls-1" d="m644.26,168.5c83.13,47.95,147.38,131.1,167.59,225.69,54.18,257.24-205.4,461.8-447.72,391.54-87.46-25.32-161.58-85.97-201.2-168.34C54.54,395.07,212.31,120.16,463.98,120.28c62.86-.5,126.32,16.77,180.28,48.22h0Zm-2,3.46c-138.14-80.13-311.12-22.28-403.68,99.46-33.61,44.4-56.51,96.99-65.46,151.97-28.01,161.7,78.32,328.05,241.91,358.91,223.33,40.23,392.43-172.16,368.97-383.54-9.56-93.67-58.82-179.64-141.75-226.8h0Z"/>
      <path class="cls-1" d="m680.27,219.25c83.13,47.95,147.38,131.1,167.59,225.69,54.18,257.24-205.4,461.8-447.72,391.54-87.46-25.32-161.58-85.97-201.2-168.34-108.4-222.32,49.38-497.24,301.04-497.11,62.86-.5,126.32,16.77,180.28,48.22h0Zm-2,3.46c-138.14-80.13-311.12-22.28-403.68,99.46-33.61,44.4-56.51,96.99-65.46,151.97-28.01,161.7,78.32,328.05,241.91,358.91,223.33,40.23,392.43-172.16,368.97-383.54-9.56-93.67-58.82-179.64-141.75-226.8h0Z"/>
      <path class="cls-1" d="m716.27,270c83.13,47.95,147.38,131.1,167.59,225.69,54.18,257.24-205.4,461.8-447.72,391.54-87.46-25.32-161.58-85.97-201.2-168.34-108.4-222.32,49.38-497.24,301.04-497.11,62.86-.49,126.32,16.77,180.28,48.22h0Zm-2,3.46c-138.14-80.13-311.12-22.28-403.68,99.46-33.61,44.4-56.51,96.99-65.46,151.97-28.01,161.7,78.32,328.05,241.91,358.91,223.33,40.23,392.43-172.16,368.97-383.54-9.56-93.67-58.82-179.64-141.75-226.8h0Z"/>
    </g>
  </g>
</svg>