<?xml version="1.0" encoding="UTF-8"?>
<svg id="Calque_2" data-name="Calque 2" xmlns="http://www.w3.org/2000/svg" xmlns:xlink="http://www.w3.org/1999/xlink" viewBox="0 0 1023.05 1023.05">
  <defs>
    <style>
      .cls-1 {
        fill: #fff;
      }

      .cls-2 {
        fill: #ffce39;
      }

      .cls-3 {
        fill: url(#Dégradé_sans_nom_28);
      }
    </style>
    <linearGradient id="Dégradé_sans_nom_28" data-name="Dégradé sans nom 28" x1="25.83" y1="25.83" x2="863.69" y2="863.69" gradientUnits="userSpaceOnUse">
      <stop offset=".06" stop-color="#3bbddc"/>
      <stop offset="1" stop-color="#aab3db"/>
    </linearGradient>
  </defs>
  <g id="Goldie">
    <g id="Goldie-2" data-name="Goldie">
      <rect class="cls-3" width="1023.05" height="1023.05"/>
      <path class="cls-1" d="m400.18,646.02c-18.49,8.37-10.96-37.81,8.72-42.8l414.86-95.56c13.42-2.36,19.75,15.81,7.82,22.41-69.54,38.47-137.61,105.32-165.74,187.33-90.53,263.93-237.9,275.34-65.75-15.83,44.42-75.13-46.13-125.15-199.92-55.55Z"/>
      <circle class="cls-1" cx="600.77" cy="495.38" r="53.25"/>
      <path class="cls-2" d="m457.04,655.26c-113.03-24.34,219.83-385.44,145.86-500.36-105.3-163.58-202.88,130.6-202.88,130.6,0,0-298.02-51.6-192.09,123.65"/>
    </g>
  </g>
</svg>